M48
METRIC,LZ,000.000
;FILE_FORMAT=3:3
;TYPE=PLATED
;Layer: PTH_Through
;EasyEDA v6.5.22, 2023-01-21 16:45:32
;b2c9ab08d96f4fb6806e15b9d32b8aef,dfc3211adda64e72838fb7ae4655844f,10
;Gerber Generator version 0.2
;Holesize 1 = 0.901 mm
T01C0.901
;Holesize 2 = 0.915 mm
T02C0.915
;Holesize 3 = 1.000 mm
T03C1.000
%
G05
G90
T01
X039243Y054483
X039370Y051816
X039370Y046609
T02
X048895Y020574
X048895Y023114
X048895Y018034
X051308Y046482
X042799Y046482
X040640Y028575
X049149Y028575
X049022Y032258
X040513Y032258
X042926Y018034
X040386Y018034
X036495Y056969
X036495Y054429
X036495Y051889
X036495Y049349
X036495Y046809
X036495Y044269
X036495Y041729
X036495Y039189
X036495Y036649
X036495Y034109
X036495Y031569
X036495Y029029
X036495Y026489
X036495Y023949
X036495Y021308
X013995Y021408
X013995Y023948
X013995Y026488
X013995Y029028
X013995Y031568
X013995Y034108
X013995Y036648
X013995Y039188
X013995Y041728
X013995Y044268
X013995Y046808
X013995Y049348
X013995Y051888
X013995Y054428
X013995Y056968
X044704Y035436
X042164Y035436
X047244Y035436
X044577Y049149
X051308Y049276
T03
X041529Y024740
X041529Y022200
M30
