G04 Layer: BottomLayer*
G04 EasyEDA v6.5.22, 2023-01-21 16:45:32*
G04 b2c9ab08d96f4fb6806e15b9d32b8aef,dfc3211adda64e72838fb7ae4655844f,10*
G04 Gerber Generator version 0.2*
G04 Scale: 100 percent, Rotated: No, Reflected: No *
G04 Dimensions in millimeters *
G04 leading zeros omitted , absolute positions ,4 integer and 5 decimal *
%FSLAX45Y45*%
%MOMM*%

%ADD10C,0.9000*%
%ADD11C,1.6000*%
%ADD12C,1.8000*%
%ADD13R,1.5240X1.8000*%

%LPD*%
D10*
X1399539Y5696762D02*
G01*
X1913077Y6210300D01*
X4508500Y6210300D01*
X4940300Y5778500D01*
X4940300Y3263900D01*
X4902200Y3225800D01*
X4914900Y2857500D02*
G01*
X4914900Y3213100D01*
X4902200Y3225800D01*
X4064000Y2857500D02*
G01*
X4000500Y2857500D01*
X3860800Y2997200D01*
X3860800Y3530600D01*
X4191000Y3860800D01*
X4457700Y3860800D01*
X3848100Y2133600D02*
G01*
X3848100Y1714500D01*
X4013200Y1549400D01*
X4927600Y1549400D01*
X5130800Y1752600D01*
X5130800Y4648200D01*
X4051300Y3225800D02*
G01*
X4051300Y3149600D01*
X4889500Y2311400D01*
X4470400Y4916548D02*
G01*
X4470400Y3846446D01*
X3868849Y2130778D02*
G01*
X4063667Y2130778D01*
X4152900Y2220010D01*
X4724400Y3543554D02*
G01*
X4648200Y3619754D01*
X4648200Y5384800D01*
X4000500Y6032500D01*
X3035300Y6032500D01*
X2524759Y5521960D01*
X2524759Y3210560D01*
X1454912Y2140712D01*
X1399539Y2140712D01*
X4152900Y2474010D02*
G01*
X4422089Y2474010D01*
X4584700Y2311400D01*
X4584700Y2120900D01*
X4483100Y2019300D01*
X4191000Y2019300D01*
X4038600Y1866900D01*
X4038600Y1803400D01*
X1399539Y2648712D02*
G01*
X1353312Y2648712D01*
X1193800Y2489200D01*
X1193800Y1993900D01*
X1333500Y1854200D01*
X1625600Y1854200D01*
X3276600Y3505200D01*
X3276600Y5461000D01*
X3512565Y5696965D01*
X3649472Y5696965D01*
X4025900Y2601013D02*
G01*
X4152900Y2474013D01*
X4152900Y2474010D01*
X4292600Y1803400D02*
G01*
X4572000Y1803400D01*
X4826000Y2057400D01*
X4889500Y2057400D01*
X5130800Y4648200D02*
G01*
X5130800Y4927600D01*
X3649548Y5442940D02*
G01*
X3918940Y5442940D01*
X3924300Y5448300D01*
X4457700Y3848100D02*
G01*
X4470400Y3543604D01*
X3649548Y4680940D02*
G01*
X3916959Y4680940D01*
X3937000Y4660900D01*
X3649548Y2130780D02*
G01*
X3868851Y2130780D01*
X3649472Y2394965D02*
G01*
X3715765Y2394965D01*
X3921759Y2600960D01*
X4025900Y2600960D01*
X4025900Y2601013D02*
G01*
X4064000Y2639113D01*
X4064000Y2857500D01*
X4279900Y4648200D02*
G01*
X3949700Y4648200D01*
X3937000Y4660900D01*
X3649548Y5188940D02*
G01*
X3656888Y5181600D01*
X3937000Y5181600D01*
X4051300Y3225800D02*
G01*
X4051300Y3378504D01*
X4216400Y3543604D01*
D11*
G01*
X4152900Y2474010D03*
G01*
X4152900Y2220010D03*
D12*
G01*
X4889500Y2057400D03*
G01*
X4889500Y2311400D03*
G01*
X4889500Y1803400D03*
G01*
X5130800Y4648200D03*
G01*
X4279900Y4648200D03*
G01*
X4064000Y2857500D03*
G01*
X4914900Y2857500D03*
G01*
X4902200Y3225800D03*
G01*
X4051300Y3225800D03*
G01*
X4292600Y1803400D03*
G01*
X4038600Y1803400D03*
G01*
X3649548Y5696940D03*
G01*
X3649548Y5442940D03*
G01*
X3649548Y5188940D03*
G01*
X3649548Y4934940D03*
G01*
X3649548Y4680940D03*
G01*
X3649548Y4426940D03*
G01*
X3649548Y4172940D03*
G01*
X3649548Y3918940D03*
G01*
X3649548Y3664940D03*
G01*
X3649548Y3410940D03*
G01*
X3649548Y3156940D03*
G01*
X3649548Y2902940D03*
G01*
X3649548Y2648940D03*
G01*
X3649548Y2394940D03*
G01*
X3649548Y2130780D03*
G01*
X1399539Y2140762D03*
G01*
X1399539Y2394762D03*
G01*
X1399539Y2648762D03*
G01*
X1399539Y2902762D03*
G01*
X1399539Y3156762D03*
G01*
X1399539Y3410762D03*
G01*
X1399539Y3664762D03*
G01*
X1399539Y3918762D03*
G01*
X1399539Y4172762D03*
G01*
X1399539Y4426762D03*
G01*
X1399539Y4680762D03*
G01*
X1399539Y4934762D03*
G01*
X1399539Y5188762D03*
G01*
X1399539Y5442762D03*
D13*
G01*
X1399539Y5696762D03*
D12*
G01*
X4470400Y3543604D03*
G01*
X4216400Y3543604D03*
G01*
X4724400Y3543604D03*
G01*
X3924300Y5448300D03*
G01*
X3937000Y5181600D03*
G01*
X3937000Y4660900D03*
G01*
X4457700Y4914900D03*
G01*
X5130800Y4927600D03*
M02*
