M48
METRIC,LZ,000.000
;FILE_FORMAT=3:3
;TYPE=PLATED
;Layer: PTH_Through
;EasyEDA v6.5.22, 2023-01-21 16:45:32
;4a6858e99da5455eb5449b68f4786d1d,dfc3211adda64e72838fb7ae4655844f,10
;Gerber Generator version 0.2
;Holesize 1 = 0.915 mm
T01C0.915
%
G05
G90
T01
X044920Y050028
X044920Y047488
X044920Y044948
X044920Y042408
X044920Y039868
X044920Y037328
X044920Y034788
X040767Y032766
X040767Y035306
X040767Y037846
X040767Y040386
X040767Y042926
X040767Y045466
X040767Y048006
X040767Y050546
X053340Y041402
X053340Y043942
X053340Y038862
X030226Y046609
X032766Y048133
X031623Y036195
X028956Y038481
X028575Y042037
M30
